<svg xmlns="http://www.w3.org/2000/svg" version="1.1" xmlns:xlink="http://www.w3.org/1999/xlink" xmlns:svgjs="http://svgjs.dev/svgjs" width="128" height="128" viewBox="0 0 128 128"><g transform="matrix(0.8046875,0,0,0.8046875,12.252930588362275,12.360446011513154)"><svg viewBox="0 0 94 95" data-background-color="#000000" preserveAspectRatio="xMidYMid meet" height="129" width="128" xmlns="http://www.w3.org/2000/svg" xmlns:xlink="http://www.w3.org/1999/xlink"><g id="tight-bounds" transform="matrix(1,0,0,1,0.22548082227132227,-0.24049999999999727)"><svg viewBox="0 0 93.54903835545736 95.481" height="95.481" width="93.54903835545736"><g><svg viewBox="0 0 93.54903835545736 95.481" height="95.481" width="93.54903835545736"><g><svg viewBox="0 0 93.54903835545736 95.481" height="95.481" width="93.54903835545736"><g id="textblocktransform"><svg viewBox="0 0 93.54903835545736 95.481" height="95.481" width="93.54903835545736" id="textblock"><g><svg viewBox="0 0 93.54903835545736 95.481" height="95.481" width="93.54903835545736"><g><svg viewBox="0 0 93.54903835545736 95.481" height="95.481" width="93.54903835545736"><g><svg xmlns="http://www.w3.org/2000/svg" data-name="Layer 1" viewBox="2.389921763537621 1.393370166192859 95.2201564914534 97.18662983380715" x="0" y="0" height="95.481" width="93.54903835545736" class="icon-icon-0" data-fill-palette-color="accent" id="icon-0"></svg></g></svg></g></svg></g></svg></g></svg></g></svg></g><defs></defs><mask id="1b400f14-df3c-4e57-a354-5fc83be1f0ca"><g id="SvgjsG1478"><svg viewBox="0 0 93.54903835545736 95.481" height="95.481" width="93.54903835545736"><g><svg viewBox="0 0 93.54903835545736 95.481" height="95.481" width="93.54903835545736"><g><svg viewBox="0 0 93.54903835545736 95.481" height="95.481" width="93.54903835545736"><g id="SvgjsG1477"><svg viewBox="0 0 93.54903835545736 95.481" height="95.481" width="93.54903835545736" id="SvgjsSvg1476"><g><svg viewBox="0 0 93.54903835545736 95.481" height="95.481" width="93.54903835545736"><g><svg viewBox="0 0 93.54903835545736 95.481" height="95.481" width="93.54903835545736"><g><svg xmlns="http://www.w3.org/2000/svg" data-name="Layer 1" viewBox="2.389921763537621 1.393370166192859 95.2201564914534 97.18662983380715" x="0" y="0" height="95.481" width="93.54903835545736" class="icon-icon-0" data-fill-palette-color="accent" id="SvgjsSvg1475"><path d="M87.37 20.12H64.9A17.49 17.49 0 0 0 61 15.56L69.56 7A3.25 3.25 0 0 0 65 2.37l-10 10a17.17 17.17 0 0 0-9.88 0l-10-10A3.25 3.25 0 0 0 30.44 7l8.6 8.6a17.47 17.47 0 0 0-3.95 4.56H12.63A10.24 10.24 0 0 0 2.39 30.36V83A10.24 10.24 0 0 0 12.63 93.28h8.68v3a2.3 2.3 0 0 0 2.3 2.3h6.81a2.3 2.3 0 0 0 2.3-2.3v-3H67.29v3a2.3 2.3 0 0 0 2.3 2.3H76.4a2.3 2.3 0 0 0 2.3-2.3v-3h8.68A10.24 10.24 0 0 0 97.61 83V30.36A10.24 10.24 0 0 0 87.37 20.12ZM71.92 75.67a5.49 5.49 0 0 1-5.49 5.49H19.33a5.49 5.49 0 0 1-5.49-5.49v-38a5.49 5.49 0 0 1 5.49-5.49H66.44a5.49 5.49 0 0 1 5.49 5.49ZM84.24 70a3.47 3.47 0 1 1 3.47-3.47A3.47 3.47 0 0 1 84.24 70Zm0-9.86a3.47 3.47 0 1 1 3.47-3.47A3.47 3.47 0 0 1 84.24 60.13Zm0-9.86a3.47 3.47 0 1 1 3.47-3.47A3.47 3.47 0 0 1 84.24 50.26Zm-41.45 22c-10 0-15.37-9.55-13.7-10s4.57 2.28 13.7 2.28 12-2.7 13.7-2.28S52.77 72.22 42.8 72.22ZM26.92 57a2.7 2.7 0 0 1 0-3.81l2.62-2.62-2.62-2.62a2.7 2.7 0 0 1 3.81-3.81l2.62 2.62L36 44.11a2.7 2.7 0 1 1 3.81 3.81l-2.62 2.62 2.62 2.62A2.7 2.7 0 1 1 36 57l-2.62-2.62L30.73 57A2.7 2.7 0 0 1 26.92 57Zm31.94-9.05l-2.62 2.62 2.62 2.62A2.7 2.7 0 1 1 55 57l-2.62-2.62L49.8 57A2.7 2.7 0 1 1 46 53.16l2.62-2.62L46 47.92a2.7 2.7 0 1 1 3.81-3.81l2.62 2.62L55 44.11a2.7 2.7 0 0 1 3.81 3.81Z" fill="white"></path></svg></g></svg></g></svg></g></svg></g></svg></g></svg></g><defs><mask></mask></defs></svg><rect width="93.54903835545736" height="95.481" fill="black" stroke="none" visibility="hidden"></rect></g></mask><linearGradient x1="0" x2="1" y1="0.5" y2="0.5" id="0ea6dc2b-4aca-45e4-b654-efcdb70561cc"><stop stop-color="#f00b51" offset="0"></stop><stop stop-color="#730062" offset="1"></stop></linearGradient><rect width="93.54903835545736" height="95.481" fill="url(#0ea6dc2b-4aca-45e4-b654-efcdb70561cc)" mask="url(#1b400f14-df3c-4e57-a354-5fc83be1f0ca)" data-fill-palette-color="accent"></rect></svg><rect width="93.54903835545736" height="95.481" fill="none" stroke="none" visibility="hidden"></rect></g></svg></g></svg>