<svg xmlns="http://www.w3.org/2000/svg" version="1.1" xmlns:xlink="http://www.w3.org/1999/xlink" xmlns:svgjs="http://svgjs.dev/svgjs" width="2000" height="313" viewBox="0 0 2000 313"><g transform="matrix(1,0,0,1,-1.2121212121212466,1.1617134985299913)"><svg viewBox="0 0 396 62" data-background-color="#000000" preserveAspectRatio="xMidYMid meet" height="313" width="2000" xmlns="http://www.w3.org/2000/svg" xmlns:xlink="http://www.w3.org/1999/xlink"><g id="tight-bounds" transform="matrix(1,0,0,1,0.2400000000000091,-0.23011577287175555)"><svg viewBox="0 0 395.52 62.46023154574353" height="62.46023154574353" width="395.52"><g><svg viewBox="0 0 483.3435309479249 76.32925985827428" height="62.46023154574353" width="395.52"><g transform="matrix(1,0,0,1,87.82353094792491,10.549123468111716)"><svg viewBox="0 0 395.52 55.23101292205085" height="55.23101292205085" width="395.52"><g id="textblocktransform"><svg viewBox="0 0 395.52 55.23101292205085" height="55.23101292205085" width="395.52" id="textblock"><g><svg viewBox="0 0 395.52 55.23101292205085" height="55.23101292205085" width="395.52"><g transform="matrix(1,0,0,1,0,0)"><svg width="395.52" viewBox="1.37 -31.3 234.25 32.72" height="55.23101292205085" data-palette-color="url(#ac387baa-7992-4d8c-adeb-5e73d6fd4952)"></svg></g></svg></g></svg></g></svg></g><g><svg viewBox="0 0 74.78481434133883 76.32925985827428" height="76.32925985827428" width="74.78481434133883"><g><svg xmlns="http://www.w3.org/2000/svg" data-name="Layer 1" viewBox="2.389921763537621 1.393370166192859 95.2201564914534 97.18662983380715" x="0" y="0" height="76.32925985827428" width="74.78481434133883" class="icon-icon-0" data-fill-palette-color="accent" id="icon-0"></svg></g></svg></g></svg></g><defs></defs><mask id="8267654b-82c3-4829-bd50-6b15a89d69be"><g id="SvgjsG1237"><svg viewBox="0 0 395.52 62.46023154574353" height="62.46023154574353" width="395.52"><g><svg viewBox="0 0 483.3435309479249 76.32925985827428" height="62.46023154574353" width="395.52"><g transform="matrix(1,0,0,1,87.82353094792491,10.549123468111716)"><svg viewBox="0 0 395.52 55.23101292205085" height="55.23101292205085" width="395.52"><g id="SvgjsG1236"><svg viewBox="0 0 395.52 55.23101292205085" height="55.23101292205085" width="395.52" id="SvgjsSvg1235"><g><svg viewBox="0 0 395.52 55.23101292205085" height="55.23101292205085" width="395.52"><g transform="matrix(1,0,0,1,0,0)"><svg width="395.52" viewBox="1.37 -31.3 234.25 32.72" height="55.23101292205085" data-palette-color="url(#ac387baa-7992-4d8c-adeb-5e73d6fd4952)"><path d="M37.21-4.39L37.6-0.78Q25.54 0.15 15.43 0.15L15.43 0.15Q1.37 0.15 1.37-1.66L1.37-1.66Q1.37-2.05 1.86-2.44L1.86-2.44 22.95-25.98Q21-26.07 19.75-26.07 18.51-26.07 16.94-26.05 15.38-26.03 12.94-25.83L12.94-25.83Q5.76-25.24 3.03-25.1L3.03-25.1Q2.29-25.1 2.12-25.54 1.95-25.98 1.86-27.59L1.86-27.59Q12.74-28.76 26.71-29.25L26.71-29.25Q27.39-29.25 28.03-29.05 28.66-28.86 28.66-28.03L28.66-28.03Q27.29-24.22 19.24-15.63L19.24-15.63Q9.77-5.57 8.25-3.56L8.25-3.56Q10.94-3.03 14.55-3.03 18.16-3.03 21.88-3.25 25.59-3.47 29.59-3.81 33.59-4.15 37.21-4.39L37.21-4.39ZM50.49-3.42L50.49-3.42Q54.78-3.42 63.43-7.32L63.43-7.32Q63.96-7.32 64.3-6.96 64.65-6.59 64.65-6.1L64.65-6.1Q62.69-2.78 57.18-0.93 51.66 0.93 46.87-0.29L46.87-0.29Q41.45-1.71 40.28-6.4L40.28-6.4Q40.18-7.32 40.18-8.89 40.18-10.45 40.99-13.01 41.79-15.58 43.75-17.87 45.7-20.17 48.34-21.48 50.97-22.8 53.95-22.8L53.95-22.8Q56.78-22.8 60.3-20.85L60.3-20.85Q61.96-19.92 62.94-18.75 63.91-17.58 63.91-16.36L63.91-16.36Q63.91-16.02 63.86-15.67L63.86-15.67Q63.77-12.7 60.98-11.91L60.98-11.91Q59.76-11.57 58.15-11.57L58.15-11.57 51.12-11.87Q47.6-11.87 45.75-10.35L45.75-10.35Q44.68-9.52 44.24-7.86L44.24-7.86Q45.46-3.42 50.49-3.42ZM59.2-18.51Q58.1-19.29 56.93-19.63 55.76-19.97 54.98-19.97 54.2-19.97 52.44-19.46 50.68-18.95 49.31-18.31L49.31-18.31Q45.94-16.75 45.94-15.04L45.94-15.04Q49.85-14.7 51.8-14.7L51.8-14.7Q57.22-14.7 59.13-15.63L59.13-15.63Q60.3-16.11 60.3-16.85L60.3-16.85Q60.3-17.72 59.2-18.51ZM86.57-7.71L86.62-10.69Q86.62-16.5 85.98-19.24L85.98-19.24Q86.37-19.97 84.81-19.97L84.81-19.97Q83.15-19.97 80.51-19.14 77.88-18.31 76.22-17.48L76.22-17.48Q72.26-15.58 71.82-13.77L71.82-13.77 71.82-0.49 68.55-0.49Q67.91-2.15 67.91-9.81L67.91-9.81Q67.91-16.65 68.18-19.87 68.45-23.1 68.6-23.54L68.6-23.54Q69.87-24.37 70.65-24.37L70.65-24.37Q71.87-24.37 71.87-21.48L71.87-21.48Q71.87-20.36 71.75-19.31 71.63-18.26 71.63-17.87L71.63-17.87Q79.54-23.68 83.88-23.68L83.88-23.68Q88.81-23.68 89.5-15.72L89.5-15.72Q89.79-12.94 89.79-8.01L89.79-8.01 89.74-4.15Q89.74-2 89.84 0L89.84 0Q89.35 0.29 89.06 0.29L89.06 0.29Q88.91 0.24 88.42 0.15 87.93 0.05 87.15 0L87.15 0Q86.66-1.95 86.62-3.98 86.57-6.01 86.57-7.71L86.57-7.71ZM95.84 0.24L95.84-8.11Q93.11-8.5 93.11-9.38L93.11-9.38Q93.11-10.01 94.04-10.84 94.96-11.67 95.89-12.55L95.89-12.55Q95.89-15.48 95.01-19.12 94.13-22.75 93.74-24.76 93.35-26.76 93.35-28.42 93.35-30.08 93.86-30.52 94.38-30.96 95.35-30.96 96.33-30.96 96.62-30.69 96.92-30.42 97.01-30.03 97.11-29.64 97.14-29.2 97.16-28.76 97.31-28.37L97.31-28.37Q97.55-27.44 98.82-27.44L98.82-27.44Q102.09-27.49 105.36-28 108.64-28.52 111.86-29.05L111.86-29.05Q118.3-30.13 120.92-30.13 123.53-30.13 125.04-29.98L125.04-29.98Q125.09-29.05 125.24-28.37 125.38-27.69 125.38-27.25L125.38-27.25Q125.38-26.42 123.77-26.66L123.77-26.66Q98.23-25.73 98.23-22.85L98.23-22.85Q98.23-19.68 98.67-17.41 99.11-15.14 99.33-14.55 99.55-13.96 99.85-13.96L99.85-13.96Q102.63-13.96 105.49-14.45 108.34-14.94 111.2-15.5 114.06-16.06 116.94-16.55 119.82-17.04 122.6-17.04L122.6-17.04Q122.65-17.04 122.65-16.67 122.65-16.31 122.6-15.87L122.6-15.87Q122.45-14.7 122.6-14.7L122.6-14.7Q120.5-13.53 114.98-12.79L114.98-12.79Q112.59-12.45 110.1-12.16 107.61-11.87 105.51-11.52L105.51-11.52Q100.68-10.84 99.89-9.72L99.89-9.72 99.36-0.15Q98.82 0.39 98.14 0.39L98.14 0.39 96.33 0.24Q96.09 0.24 95.84 0.24L95.84 0.24ZM126.94-6.49L126.94-6.49Q126.94-7.28 126.82-8.67 126.7-10.06 126.6-11.72 126.5-13.38 126.5-15.09 126.5-16.8 126.8-18.21L126.8-18.21Q127.43-21.39 129.43-21.39L129.43-21.39Q130.8-21 131.26-20.41 131.73-19.82 131.73-18.97 131.73-18.12 131.29-16.85L131.29-16.85Q129.68-12.6 129.68-9.18L129.68-9.18Q129.68-8.06 129.82-6.79L129.82-6.79Q130.61-3.52 135.2-3.52L135.2-3.52Q137.59-3.52 139.74-4.35L139.74-4.35Q143.84-5.86 145.3-7.91L145.3-7.91Q145.74-10.16 145.74-11.84 145.74-13.53 145.62-14.84 145.5-16.16 145.33-17.75 145.16-19.34 145.11-21.24L145.11-21.24Q145.74-21.53 146.35-21.53 146.96-21.53 147.62-20.9 148.28-20.26 148.74-18.51 149.21-16.75 149.36-14.38 149.5-12.01 149.53-9.47 149.55-6.93 149.55-4.57 149.55-2.2 149.75-0.49L149.75-0.49Q149.16 0.05 148.62 0.05L148.62 0.05Q146.67 0.05 145.74-3.86L145.74-3.86Q145.11-3.32 143.59-2.54L143.59-2.54Q140.37-0.78 135.98-0.2L135.98-0.2Q135.15-0.1 134.12-0.1 133.1-0.1 131.56-0.49 130.02-0.88 128.65-2.29 127.28-3.71 126.94-6.49ZM169.27-12.6L169.27-12.6Q174.65-12.6 174.65-9.86L174.65-9.86Q174.65-7.81 171.67-5.08L171.67-5.08Q167.22-1.03 159.7 1.42L159.7 1.42Q159.36 1.42 158.95 0.73 158.53 0.05 158.31-0.32 158.09-0.68 158-0.78L158-0.78Q163.61-2.64 167.22-5.27L167.22-5.27Q169.67-7.03 169.67-8.15 169.67-9.28 166.78-9.28 163.9-9.28 158.34-7.91L158.34-7.91Q155.8-8.01 153.94-9.72L153.94-9.72Q152.33-11.23 152.33-12.77 152.33-14.31 153.21-15.6 154.09-16.89 155.55-18.02 157.02-19.14 158.97-20.07L158.97-20.07Q163.76-22.36 168.88-22.36L168.88-22.36Q170.4-22.36 171.81-22.07L171.81-22.07Q172.99-22.07 173.18-21.04 173.38-20.02 173.38-17.68L173.38-17.68Q170.5-18.99 166.88-18.99L166.88-18.99Q162.39-18.99 159.46-17.19L159.46-17.19Q156.43-15.43 156.34-12.6L156.34-12.6Q156.34-11.23 158.34-11.23L158.34-11.23 161.9-11.62Q166.49-12.6 169.27-12.6ZM178.99-22.95L182.07-22.95Q182.7-13.82 183.14-1.81L183.14-1.81Q182.85-0.29 180.8-0.29L180.8-0.29Q180.26-0.29 179.7-0.51 179.14-0.73 178.99-1.12L178.99-1.12 178.99-22.95ZM177.52-29.59L177.52-29.59Q177.52-31.3 179.53-31.3L179.53-31.3Q180.84-31.3 181.67-30.71L181.67-30.71Q181.82-30.18 181.82-29.66 181.82-29.15 181.43-28.66L181.43-28.66Q181.04-28.17 180.26-28.17 179.48-28.17 178.7-28.54 177.91-28.91 177.52-29.59ZM186.46-9.28L186.46-9.28Q186.46-15.04 191.44-18.55L191.44-18.55Q195.39-21.34 200.96-21.92L200.96-21.92Q201.25-21.92 202.33-21.92 203.4-21.92 205.21-21.29L205.21-21.29Q209.21-19.92 210.68-16.46L210.68-16.46Q211.26-15.09 211.26-14.14 211.26-13.18 211.21-12.79L211.21-12.79Q211.21-6.69 206.57-3.17L206.57-3.17Q202.28 0.05 195.83 0.05L195.83 0.05Q191.19 0.05 188.83-2.1 186.46-4.25 186.46-9.28ZM189.83-8.11L189.83-8.11Q189.83-5.08 191.44-4L191.44-4Q192.66-3.22 195.54-3.22 198.42-3.22 200.62-3.66 202.81-4.1 204.52-5.18L204.52-5.18Q208.19-7.52 208.19-12.45L208.19-12.45Q208.19-15.38 206.62-17.24L206.62-17.24Q204.91-19.24 202.13-19.24L202.13-19.24Q200.23-18.9 198.3-18.51 196.37-18.12 194.66-16.99L194.66-16.99Q190.95-14.6 189.83-8.11ZM232.35-7.71L232.4-10.69Q232.4-16.5 231.77-19.24L231.77-19.24Q232.16-19.97 230.6-19.97L230.6-19.97Q228.94-19.97 226.3-19.14 223.66-18.31 222-17.48L222-17.48Q218.05-15.58 217.61-13.77L217.61-13.77 217.61-0.49 214.34-0.49Q213.7-2.15 213.7-9.81L213.7-9.81Q213.7-16.65 213.97-19.87 214.24-23.1 214.38-23.54L214.38-23.54Q215.65-24.37 216.44-24.37L216.44-24.37Q217.66-24.37 217.66-21.48L217.66-21.48Q217.66-20.36 217.53-19.31 217.41-18.26 217.41-17.87L217.41-17.87Q225.32-23.68 229.67-23.68L229.67-23.68Q234.6-23.68 235.28-15.72L235.28-15.72Q235.58-12.94 235.58-8.01L235.58-8.01 235.53-4.15Q235.53-2 235.62 0L235.62 0Q235.14 0.29 234.84 0.29L234.84 0.29Q234.7 0.24 234.21 0.15 233.72 0.05 232.94 0L232.94 0Q232.45-1.95 232.4-3.98 232.35-6.01 232.35-7.71L232.35-7.71Z" opacity="1" transform="matrix(1,0,0,1,0,0)" fill="white" class="wordmark-text-0" id="SvgjsPath1234"></path></svg></g></svg></g></svg></g></svg></g><g><svg viewBox="0 0 74.78481434133883 76.32925985827428" height="76.32925985827428" width="74.78481434133883"><g><svg xmlns="http://www.w3.org/2000/svg" data-name="Layer 1" viewBox="2.389921763537621 1.393370166192859 95.2201564914534 97.18662983380715" x="0" y="0" height="76.32925985827428" width="74.78481434133883" class="icon-icon-0" data-fill-palette-color="accent" id="SvgjsSvg1233"><path d="M87.37 20.12H64.9A17.49 17.49 0 0 0 61 15.56L69.56 7A3.25 3.25 0 0 0 65 2.37l-10 10a17.17 17.17 0 0 0-9.88 0l-10-10A3.25 3.25 0 0 0 30.44 7l8.6 8.6a17.47 17.47 0 0 0-3.95 4.56H12.63A10.24 10.24 0 0 0 2.39 30.36V83A10.24 10.24 0 0 0 12.63 93.28h8.68v3a2.3 2.3 0 0 0 2.3 2.3h6.81a2.3 2.3 0 0 0 2.3-2.3v-3H67.29v3a2.3 2.3 0 0 0 2.3 2.3H76.4a2.3 2.3 0 0 0 2.3-2.3v-3h8.68A10.24 10.24 0 0 0 97.61 83V30.36A10.24 10.24 0 0 0 87.37 20.12ZM71.92 75.67a5.49 5.49 0 0 1-5.49 5.49H19.33a5.49 5.49 0 0 1-5.49-5.49v-38a5.49 5.49 0 0 1 5.49-5.49H66.44a5.49 5.49 0 0 1 5.49 5.49ZM84.24 70a3.47 3.47 0 1 1 3.47-3.47A3.47 3.47 0 0 1 84.24 70Zm0-9.86a3.47 3.47 0 1 1 3.47-3.47A3.47 3.47 0 0 1 84.24 60.13Zm0-9.86a3.47 3.47 0 1 1 3.47-3.47A3.47 3.47 0 0 1 84.24 50.26Zm-41.45 22c-10 0-15.37-9.55-13.7-10s4.57 2.28 13.7 2.28 12-2.7 13.7-2.28S52.77 72.22 42.8 72.22ZM26.92 57a2.7 2.7 0 0 1 0-3.81l2.62-2.62-2.62-2.62a2.7 2.7 0 0 1 3.81-3.81l2.62 2.62L36 44.11a2.7 2.7 0 1 1 3.81 3.81l-2.62 2.62 2.62 2.62A2.7 2.7 0 1 1 36 57l-2.62-2.62L30.73 57A2.7 2.7 0 0 1 26.92 57Zm31.94-9.05l-2.62 2.62 2.62 2.62A2.7 2.7 0 1 1 55 57l-2.62-2.62L49.8 57A2.7 2.7 0 1 1 46 53.16l2.62-2.62L46 47.92a2.7 2.7 0 1 1 3.81-3.81l2.62 2.62L55 44.11a2.7 2.7 0 0 1 3.81 3.81Z" fill="black"></path></svg></g></svg></g></svg></g><defs><mask></mask></defs></svg><rect width="395.52" height="62.46023154574353" fill="black" stroke="none" visibility="hidden"></rect></g></mask><linearGradient x1="0" x2="1" y1="0.5" y2="0.5" id="ac387baa-7992-4d8c-adeb-5e73d6fd4952"><stop stop-color="#f00b51" offset="0"></stop><stop stop-color="#730062" offset="1"></stop></linearGradient><rect width="395.52" height="62.46023154574353" fill="url(#ac387baa-7992-4d8c-adeb-5e73d6fd4952)" mask="url(#8267654b-82c3-4829-bd50-6b15a89d69be)" data-fill-palette-color="primary"></rect><mask id="5c58b3de-b8aa-4a3a-8bfe-183a2ab71bf3"><g id="SvgjsG1256"><svg viewBox="0 0 395.52 62.46023154574353" height="62.46023154574353" width="395.52"><g><svg viewBox="0 0 483.3435309479249 76.32925985827428" height="62.46023154574353" width="395.52"><g transform="matrix(1,0,0,1,87.82353094792491,10.549123468111716)"><svg viewBox="0 0 395.52 55.23101292205085" height="55.23101292205085" width="395.52"><g id="SvgjsG1255"><svg viewBox="0 0 395.52 55.23101292205085" height="55.23101292205085" width="395.52" id="SvgjsSvg1254"><g><svg viewBox="0 0 395.52 55.23101292205085" height="55.23101292205085" width="395.52"><g transform="matrix(1,0,0,1,0,0)"><svg width="395.52" viewBox="1.37 -31.3 234.25 32.72" height="55.23101292205085" data-palette-color="url(#ac387baa-7992-4d8c-adeb-5e73d6fd4952)"></svg></g></svg></g></svg></g></svg></g><g><svg viewBox="0 0 74.78481434133883 76.32925985827428" height="76.32925985827428" width="74.78481434133883"><g><svg xmlns="http://www.w3.org/2000/svg" data-name="Layer 1" viewBox="2.389921763537621 1.393370166192859 95.2201564914534 97.18662983380715" x="0" y="0" height="76.32925985827428" width="74.78481434133883" class="icon-icon-0" data-fill-palette-color="accent" id="SvgjsSvg1253"><path d="M87.37 20.12H64.9A17.49 17.49 0 0 0 61 15.56L69.56 7A3.25 3.25 0 0 0 65 2.37l-10 10a17.17 17.17 0 0 0-9.88 0l-10-10A3.25 3.25 0 0 0 30.44 7l8.6 8.6a17.47 17.47 0 0 0-3.95 4.56H12.63A10.24 10.24 0 0 0 2.39 30.36V83A10.24 10.24 0 0 0 12.63 93.28h8.68v3a2.3 2.3 0 0 0 2.3 2.3h6.81a2.3 2.3 0 0 0 2.3-2.3v-3H67.29v3a2.3 2.3 0 0 0 2.3 2.3H76.4a2.3 2.3 0 0 0 2.3-2.3v-3h8.68A10.24 10.24 0 0 0 97.61 83V30.36A10.24 10.24 0 0 0 87.37 20.12ZM71.92 75.67a5.49 5.49 0 0 1-5.49 5.49H19.33a5.49 5.49 0 0 1-5.49-5.49v-38a5.49 5.49 0 0 1 5.49-5.49H66.44a5.49 5.49 0 0 1 5.49 5.49ZM84.24 70a3.47 3.47 0 1 1 3.47-3.47A3.47 3.47 0 0 1 84.24 70Zm0-9.86a3.47 3.47 0 1 1 3.47-3.47A3.47 3.47 0 0 1 84.24 60.13Zm0-9.86a3.47 3.47 0 1 1 3.47-3.47A3.47 3.47 0 0 1 84.24 50.26Zm-41.45 22c-10 0-15.37-9.55-13.7-10s4.57 2.28 13.7 2.28 12-2.7 13.7-2.28S52.77 72.22 42.8 72.22ZM26.92 57a2.7 2.7 0 0 1 0-3.81l2.62-2.62-2.62-2.62a2.7 2.7 0 0 1 3.81-3.81l2.62 2.62L36 44.11a2.7 2.7 0 1 1 3.81 3.81l-2.62 2.62 2.62 2.62A2.7 2.7 0 1 1 36 57l-2.62-2.62L30.73 57A2.7 2.7 0 0 1 26.92 57Zm31.94-9.05l-2.62 2.62 2.62 2.62A2.7 2.7 0 1 1 55 57l-2.62-2.62L49.8 57A2.7 2.7 0 1 1 46 53.16l2.62-2.62L46 47.92a2.7 2.7 0 1 1 3.81-3.81l2.62 2.62L55 44.11a2.7 2.7 0 0 1 3.81 3.81Z" fill="white"></path></svg></g></svg></g></svg></g><defs><mask></mask></defs><mask><g id="SvgjsG1252"><svg viewBox="0 0 395.52 62.46023154574353" height="62.46023154574353" width="395.52"><g><svg viewBox="0 0 483.3435309479249 76.32925985827428" height="62.46023154574353" width="395.52"><g transform="matrix(1,0,0,1,87.82353094792491,10.549123468111716)"><svg viewBox="0 0 395.52 55.23101292205085" height="55.23101292205085" width="395.52"><g id="SvgjsG1251"><svg viewBox="0 0 395.52 55.23101292205085" height="55.23101292205085" width="395.52" id="SvgjsSvg1250"><g><svg viewBox="0 0 395.52 55.23101292205085" height="55.23101292205085" width="395.52"><g transform="matrix(1,0,0,1,0,0)"><svg width="395.52" viewBox="1.37 -31.3 234.25 32.72" height="55.23101292205085" data-palette-color="url(#ac387baa-7992-4d8c-adeb-5e73d6fd4952)"><path d="M37.21-4.39L37.6-0.78Q25.54 0.15 15.43 0.15L15.43 0.15Q1.37 0.15 1.37-1.66L1.37-1.66Q1.37-2.05 1.86-2.44L1.86-2.44 22.95-25.98Q21-26.07 19.75-26.07 18.51-26.07 16.94-26.05 15.38-26.03 12.94-25.83L12.94-25.83Q5.76-25.24 3.03-25.1L3.03-25.1Q2.29-25.1 2.12-25.54 1.95-25.98 1.86-27.59L1.86-27.59Q12.74-28.76 26.71-29.25L26.71-29.25Q27.39-29.25 28.03-29.05 28.66-28.86 28.66-28.03L28.66-28.03Q27.29-24.22 19.24-15.63L19.24-15.63Q9.77-5.57 8.25-3.56L8.25-3.56Q10.94-3.03 14.55-3.03 18.16-3.03 21.88-3.25 25.59-3.47 29.59-3.81 33.59-4.15 37.21-4.39L37.21-4.39ZM50.49-3.42L50.49-3.42Q54.78-3.42 63.43-7.32L63.43-7.32Q63.96-7.32 64.3-6.96 64.65-6.59 64.65-6.1L64.65-6.1Q62.69-2.78 57.18-0.93 51.66 0.93 46.87-0.29L46.87-0.29Q41.45-1.71 40.28-6.4L40.28-6.4Q40.18-7.32 40.18-8.89 40.18-10.45 40.99-13.01 41.79-15.58 43.75-17.87 45.7-20.17 48.34-21.48 50.97-22.8 53.95-22.8L53.95-22.8Q56.78-22.8 60.3-20.85L60.3-20.85Q61.96-19.92 62.94-18.75 63.91-17.58 63.91-16.36L63.91-16.36Q63.91-16.02 63.86-15.67L63.86-15.67Q63.77-12.7 60.98-11.91L60.98-11.91Q59.76-11.57 58.15-11.57L58.15-11.57 51.12-11.87Q47.6-11.87 45.75-10.35L45.75-10.35Q44.68-9.52 44.24-7.86L44.24-7.86Q45.46-3.42 50.49-3.42ZM59.2-18.51Q58.1-19.29 56.93-19.63 55.76-19.97 54.98-19.97 54.2-19.97 52.44-19.46 50.68-18.95 49.31-18.31L49.31-18.31Q45.94-16.75 45.94-15.04L45.94-15.04Q49.85-14.7 51.8-14.7L51.8-14.7Q57.22-14.7 59.13-15.63L59.13-15.63Q60.3-16.11 60.3-16.85L60.3-16.85Q60.3-17.72 59.2-18.51ZM86.57-7.71L86.62-10.69Q86.62-16.5 85.98-19.24L85.98-19.24Q86.37-19.97 84.81-19.97L84.81-19.97Q83.15-19.97 80.51-19.14 77.88-18.31 76.22-17.48L76.22-17.48Q72.26-15.58 71.82-13.77L71.82-13.77 71.82-0.49 68.55-0.49Q67.91-2.15 67.91-9.81L67.91-9.81Q67.91-16.65 68.18-19.87 68.45-23.1 68.6-23.54L68.6-23.54Q69.87-24.37 70.65-24.37L70.65-24.37Q71.87-24.37 71.87-21.48L71.87-21.48Q71.87-20.36 71.75-19.31 71.63-18.26 71.63-17.87L71.63-17.87Q79.54-23.68 83.88-23.68L83.88-23.68Q88.81-23.68 89.5-15.72L89.5-15.72Q89.79-12.94 89.79-8.01L89.79-8.01 89.74-4.15Q89.74-2 89.84 0L89.84 0Q89.35 0.29 89.06 0.29L89.06 0.29Q88.91 0.24 88.42 0.15 87.93 0.05 87.15 0L87.15 0Q86.66-1.95 86.62-3.98 86.57-6.01 86.57-7.71L86.57-7.71ZM95.84 0.24L95.84-8.11Q93.11-8.5 93.11-9.38L93.11-9.38Q93.11-10.01 94.04-10.84 94.96-11.67 95.89-12.55L95.89-12.55Q95.89-15.48 95.01-19.12 94.13-22.75 93.74-24.76 93.35-26.76 93.35-28.42 93.35-30.08 93.86-30.52 94.38-30.96 95.35-30.96 96.33-30.96 96.62-30.69 96.92-30.42 97.01-30.03 97.11-29.64 97.14-29.2 97.16-28.76 97.31-28.37L97.31-28.37Q97.55-27.44 98.82-27.44L98.82-27.44Q102.09-27.49 105.36-28 108.64-28.52 111.86-29.05L111.86-29.05Q118.3-30.13 120.92-30.13 123.53-30.13 125.04-29.98L125.04-29.98Q125.09-29.05 125.24-28.37 125.38-27.69 125.38-27.25L125.38-27.25Q125.38-26.42 123.77-26.66L123.77-26.66Q98.23-25.73 98.23-22.85L98.23-22.85Q98.23-19.68 98.67-17.41 99.11-15.14 99.33-14.55 99.55-13.96 99.85-13.96L99.85-13.96Q102.63-13.96 105.49-14.45 108.34-14.94 111.2-15.5 114.06-16.06 116.94-16.55 119.82-17.04 122.6-17.04L122.6-17.04Q122.65-17.04 122.65-16.67 122.65-16.31 122.6-15.87L122.6-15.87Q122.45-14.7 122.6-14.7L122.6-14.7Q120.5-13.53 114.98-12.79L114.98-12.79Q112.59-12.45 110.1-12.16 107.61-11.87 105.51-11.52L105.51-11.52Q100.68-10.84 99.89-9.72L99.89-9.72 99.36-0.15Q98.82 0.39 98.14 0.39L98.14 0.39 96.33 0.24Q96.09 0.24 95.84 0.24L95.84 0.24ZM126.94-6.49L126.94-6.49Q126.94-7.28 126.82-8.67 126.7-10.06 126.6-11.72 126.5-13.38 126.5-15.09 126.5-16.8 126.8-18.21L126.8-18.21Q127.43-21.39 129.43-21.39L129.43-21.39Q130.8-21 131.26-20.41 131.73-19.82 131.73-18.97 131.73-18.12 131.29-16.85L131.29-16.85Q129.68-12.6 129.68-9.18L129.68-9.18Q129.68-8.06 129.82-6.79L129.82-6.79Q130.61-3.52 135.2-3.52L135.2-3.52Q137.59-3.52 139.74-4.35L139.74-4.35Q143.84-5.86 145.3-7.91L145.3-7.91Q145.74-10.16 145.74-11.84 145.74-13.53 145.62-14.84 145.5-16.16 145.33-17.75 145.16-19.34 145.11-21.24L145.11-21.24Q145.74-21.53 146.35-21.53 146.96-21.53 147.62-20.9 148.28-20.26 148.74-18.51 149.21-16.75 149.36-14.38 149.5-12.01 149.53-9.47 149.55-6.93 149.55-4.57 149.55-2.2 149.75-0.49L149.75-0.49Q149.16 0.05 148.62 0.05L148.62 0.05Q146.67 0.05 145.74-3.86L145.74-3.86Q145.11-3.32 143.59-2.54L143.59-2.54Q140.37-0.78 135.98-0.2L135.98-0.2Q135.15-0.1 134.12-0.1 133.1-0.1 131.56-0.49 130.02-0.88 128.65-2.29 127.28-3.71 126.94-6.49ZM169.27-12.6L169.27-12.6Q174.65-12.6 174.65-9.86L174.65-9.86Q174.65-7.81 171.67-5.08L171.67-5.08Q167.22-1.03 159.7 1.42L159.7 1.42Q159.36 1.42 158.95 0.73 158.53 0.05 158.31-0.32 158.09-0.68 158-0.78L158-0.78Q163.61-2.64 167.22-5.27L167.22-5.27Q169.67-7.03 169.67-8.15 169.67-9.28 166.78-9.28 163.9-9.28 158.34-7.91L158.34-7.91Q155.8-8.01 153.94-9.72L153.94-9.72Q152.33-11.23 152.33-12.77 152.33-14.31 153.21-15.6 154.09-16.89 155.55-18.02 157.02-19.14 158.97-20.07L158.97-20.07Q163.76-22.36 168.88-22.36L168.88-22.36Q170.4-22.36 171.81-22.07L171.81-22.07Q172.99-22.07 173.18-21.04 173.38-20.02 173.38-17.68L173.38-17.68Q170.5-18.99 166.88-18.99L166.88-18.99Q162.39-18.99 159.46-17.19L159.46-17.19Q156.43-15.43 156.34-12.6L156.34-12.6Q156.34-11.23 158.34-11.23L158.34-11.23 161.9-11.62Q166.49-12.6 169.27-12.6ZM178.99-22.95L182.07-22.95Q182.7-13.82 183.14-1.81L183.14-1.81Q182.85-0.29 180.8-0.29L180.8-0.29Q180.26-0.29 179.7-0.51 179.14-0.73 178.99-1.12L178.99-1.12 178.99-22.95ZM177.52-29.59L177.52-29.59Q177.52-31.3 179.53-31.3L179.53-31.3Q180.84-31.3 181.67-30.71L181.67-30.71Q181.82-30.18 181.82-29.66 181.82-29.15 181.43-28.66L181.43-28.66Q181.04-28.17 180.26-28.17 179.48-28.17 178.7-28.54 177.91-28.91 177.52-29.59ZM186.46-9.28L186.46-9.28Q186.46-15.04 191.44-18.55L191.44-18.55Q195.39-21.34 200.96-21.92L200.96-21.92Q201.25-21.92 202.33-21.92 203.4-21.92 205.21-21.29L205.21-21.29Q209.21-19.92 210.68-16.46L210.68-16.46Q211.26-15.09 211.26-14.14 211.26-13.18 211.21-12.79L211.21-12.79Q211.21-6.69 206.57-3.17L206.57-3.17Q202.28 0.05 195.83 0.05L195.83 0.05Q191.19 0.05 188.83-2.1 186.46-4.25 186.46-9.28ZM189.83-8.11L189.83-8.11Q189.83-5.08 191.44-4L191.44-4Q192.66-3.22 195.54-3.22 198.42-3.22 200.62-3.66 202.81-4.1 204.52-5.18L204.52-5.18Q208.19-7.52 208.19-12.45L208.19-12.45Q208.19-15.38 206.62-17.24L206.62-17.24Q204.91-19.24 202.13-19.24L202.13-19.24Q200.23-18.9 198.3-18.51 196.37-18.12 194.66-16.99L194.66-16.99Q190.95-14.6 189.83-8.11ZM232.35-7.71L232.4-10.69Q232.4-16.5 231.77-19.24L231.77-19.24Q232.16-19.97 230.6-19.97L230.6-19.97Q228.94-19.97 226.3-19.14 223.66-18.31 222-17.48L222-17.48Q218.05-15.58 217.61-13.77L217.61-13.77 217.61-0.49 214.34-0.49Q213.7-2.15 213.7-9.81L213.7-9.81Q213.7-16.65 213.97-19.87 214.24-23.1 214.38-23.54L214.38-23.54Q215.65-24.37 216.44-24.37L216.44-24.37Q217.66-24.37 217.66-21.48L217.66-21.48Q217.66-20.36 217.53-19.31 217.41-18.26 217.41-17.87L217.41-17.87Q225.32-23.68 229.67-23.68L229.67-23.68Q234.6-23.68 235.28-15.72L235.28-15.72Q235.58-12.94 235.58-8.01L235.58-8.01 235.53-4.15Q235.53-2 235.62 0L235.62 0Q235.14 0.29 234.84 0.29L234.84 0.29Q234.7 0.24 234.21 0.15 233.72 0.05 232.94 0L232.94 0Q232.45-1.95 232.4-3.98 232.35-6.01 232.35-7.71L232.35-7.71Z" opacity="1" transform="matrix(1,0,0,1,0,0)" fill="black" class="wordmark-text-0" id="SvgjsPath1249"></path></svg></g></svg></g></svg></g></svg></g><g><svg viewBox="0 0 74.78481434133883 76.32925985827428" height="76.32925985827428" width="74.78481434133883"><g><svg xmlns="http://www.w3.org/2000/svg" data-name="Layer 1" viewBox="2.389921763537621 1.393370166192859 95.2201564914534 97.18662983380715" x="0" y="0" height="76.32925985827428" width="74.78481434133883" class="icon-icon-0" data-fill-palette-color="accent" id="SvgjsSvg1248"><path d="M87.37 20.12H64.9A17.49 17.49 0 0 0 61 15.56L69.56 7A3.25 3.25 0 0 0 65 2.37l-10 10a17.17 17.17 0 0 0-9.88 0l-10-10A3.25 3.25 0 0 0 30.44 7l8.6 8.6a17.47 17.47 0 0 0-3.95 4.56H12.63A10.24 10.24 0 0 0 2.39 30.36V83A10.24 10.24 0 0 0 12.63 93.28h8.68v3a2.3 2.3 0 0 0 2.3 2.3h6.81a2.3 2.3 0 0 0 2.3-2.3v-3H67.29v3a2.3 2.3 0 0 0 2.3 2.3H76.4a2.3 2.3 0 0 0 2.3-2.3v-3h8.68A10.24 10.24 0 0 0 97.61 83V30.36A10.24 10.24 0 0 0 87.37 20.12ZM71.92 75.67a5.49 5.49 0 0 1-5.49 5.49H19.33a5.49 5.49 0 0 1-5.49-5.49v-38a5.49 5.49 0 0 1 5.49-5.49H66.44a5.49 5.49 0 0 1 5.49 5.49ZM84.24 70a3.47 3.47 0 1 1 3.47-3.47A3.47 3.47 0 0 1 84.24 70Zm0-9.86a3.47 3.47 0 1 1 3.47-3.47A3.47 3.47 0 0 1 84.24 60.13Zm0-9.86a3.47 3.47 0 1 1 3.47-3.47A3.47 3.47 0 0 1 84.24 50.26Zm-41.45 22c-10 0-15.37-9.55-13.7-10s4.57 2.28 13.7 2.28 12-2.7 13.7-2.28S52.77 72.22 42.8 72.22ZM26.92 57a2.7 2.7 0 0 1 0-3.81l2.62-2.62-2.62-2.62a2.7 2.7 0 0 1 3.81-3.81l2.62 2.62L36 44.11a2.7 2.7 0 1 1 3.81 3.81l-2.62 2.62 2.62 2.62A2.7 2.7 0 1 1 36 57l-2.62-2.62L30.73 57A2.7 2.7 0 0 1 26.92 57Zm31.94-9.05l-2.62 2.62 2.62 2.62A2.7 2.7 0 1 1 55 57l-2.62-2.62L49.8 57A2.7 2.7 0 1 1 46 53.16l2.62-2.62L46 47.92a2.7 2.7 0 1 1 3.81-3.81l2.62 2.62L55 44.11a2.7 2.7 0 0 1 3.81 3.81Z" fill="black"></path></svg></g></svg></g></svg></g><defs><mask></mask></defs></svg><rect width="395.52" height="62.46023154574353" fill="black" stroke="none" visibility="hidden"></rect></g></mask></svg><rect width="395.52" height="62.46023154574353" fill="black" stroke="none" visibility="hidden"></rect></g></mask><linearGradient x1="0" x2="1" y1="0.5" y2="0.5" id="b4ece7db-df49-4abf-ad2c-1ab20021b97b"><stop stop-color="#f00b51" offset="0"></stop><stop stop-color="#730062" offset="1"></stop></linearGradient><rect width="395.52" height="62.46023154574353" fill="url(#b4ece7db-df49-4abf-ad2c-1ab20021b97b)" mask="url(#5c58b3de-b8aa-4a3a-8bfe-183a2ab71bf3)" data-fill-palette-color="accent"></rect></svg><rect width="395.52" height="62.46023154574353" fill="none" stroke="none" visibility="hidden"></rect></g></svg></g></svg>