<svg xmlns="http://www.w3.org/2000/svg" xmlns:svgjs="http://svgjs.dev/svgjs" xmlns:xlink="http://www.w3.org/1999/xlink" width="128" height="128" version="1.1" viewBox="0 0 128 128"><g transform="matrix(0.8046875,0,0,0.8046875,12.252930588362275,12.360446011513154)"><svg xmlns="http://www.w3.org/2000/svg" xmlns:xlink="http://www.w3.org/1999/xlink" width="128" height="129" data-background-color="#000000" preserveAspectRatio="xMidYMid meet" viewBox="0 0 94 95"><g id="tight-bounds" transform="matrix(1,0,0,1,0.22548082227132227,-0.24049999999999727)"><svg width="93.549" height="95.481" viewBox="0 0 93.549 95.481"><g><svg width="93.549" height="95.481" viewBox="0 0 93.549 95.481"><g><svg width="93.549" height="95.481" viewBox="0 0 93.549 95.481"><g id="textblocktransform"><svg id="textblock" width="93.549" height="95.481" viewBox="0 0 93.549 95.481"><g><svg width="93.549" height="95.481" viewBox="0 0 93.549 95.481"><g><svg width="93.549" height="95.481" viewBox="0 0 93.549 95.481"><g><svg xmlns="http://www.w3.org/2000/svg" id="icon-0" width="93.549" height="95.481" x="0" y="0" class="icon-icon-0" data-fill-palette-color="accent" data-name="Layer 1" viewBox="2.39 1.393 95.22 97.187"/></g></svg></g></svg></g></svg></g></svg></g></svg></g><mask id="1b400f14-df3c-4e57-a354-5fc83be1f0ca"><g id="SvgjsG1478"><svg width="93.549" height="95.481" viewBox="0 0 93.549 95.481"><g><svg width="93.549" height="95.481" viewBox="0 0 93.549 95.481"><g><svg width="93.549" height="95.481" viewBox="0 0 93.549 95.481"><g id="SvgjsG1477"><svg id="SvgjsSvg1476" width="93.549" height="95.481" viewBox="0 0 93.549 95.481"><g><svg width="93.549" height="95.481" viewBox="0 0 93.549 95.481"><g><svg width="93.549" height="95.481" viewBox="0 0 93.549 95.481"><g><svg xmlns="http://www.w3.org/2000/svg" id="SvgjsSvg1475" width="93.549" height="95.481" x="0" y="0" class="icon-icon-0" data-fill-palette-color="accent" data-name="Layer 1" viewBox="2.39 1.393 95.22 97.187"><path fill="#fff" d="M87.37 20.12H64.9A17.49 17.49 0 0 0 61 15.56L69.56 7A3.25 3.25 0 0 0 65 2.37l-10 10a17.17 17.17 0 0 0-9.88 0l-10-10A3.25 3.25 0 0 0 30.44 7l8.6 8.6a17.47 17.47 0 0 0-3.95 4.56H12.63A10.24 10.24 0 0 0 2.39 30.36V83A10.24 10.24 0 0 0 12.63 93.28h8.68v3a2.3 2.3 0 0 0 2.3 2.3h6.81a2.3 2.3 0 0 0 2.3-2.3v-3H67.29v3a2.3 2.3 0 0 0 2.3 2.3H76.4a2.3 2.3 0 0 0 2.3-2.3v-3h8.68A10.24 10.24 0 0 0 97.61 83V30.36A10.24 10.24 0 0 0 87.37 20.12ZM71.92 75.67a5.49 5.49 0 0 1-5.49 5.49H19.33a5.49 5.49 0 0 1-5.49-5.49v-38a5.49 5.49 0 0 1 5.49-5.49H66.44a5.49 5.49 0 0 1 5.49 5.49ZM84.24 70a3.47 3.47 0 1 1 3.47-3.47A3.47 3.47 0 0 1 84.24 70Zm0-9.86a3.47 3.47 0 1 1 3.47-3.47A3.47 3.47 0 0 1 84.24 60.13Zm0-9.86a3.47 3.47 0 1 1 3.47-3.47A3.47 3.47 0 0 1 84.24 50.26Zm-41.45 22c-10 0-15.37-9.55-13.7-10s4.57 2.28 13.7 2.28 12-2.7 13.7-2.28S52.77 72.22 42.8 72.22ZM26.92 57a2.7 2.7 0 0 1 0-3.81l2.62-2.62-2.62-2.62a2.7 2.7 0 0 1 3.81-3.81l2.62 2.62L36 44.11a2.7 2.7 0 1 1 3.81 3.81l-2.62 2.62 2.62 2.62A2.7 2.7 0 1 1 36 57l-2.62-2.62L30.73 57A2.7 2.7 0 0 1 26.92 57Zm31.94-9.05l-2.62 2.62 2.62 2.62A2.7 2.7 0 1 1 55 57l-2.62-2.62L49.8 57A2.7 2.7 0 1 1 46 53.16l2.62-2.62L46 47.92a2.7 2.7 0 1 1 3.81-3.81l2.62 2.62L55 44.11a2.7 2.7 0 0 1 3.81 3.81Z"/></svg></g></svg></g></svg></g></svg></g></svg></g></svg></g></svg><rect width="93.549" height="95.481" fill="#000" stroke="none" visibility="hidden"/></g></mask><linearGradient id="0ea6dc2b-4aca-45e4-b654-efcdb70561cc" x1="0" x2="1" y1=".5" y2=".5"><stop offset="0" stop-color="#f00b51"/><stop offset="1" stop-color="#730062"/></linearGradient><rect width="93.549" height="95.481" fill="url(#0ea6dc2b-4aca-45e4-b654-efcdb70561cc)" data-fill-palette-color="accent" mask="url(#1b400f14-df3c-4e57-a354-5fc83be1f0ca)"/></svg><rect width="93.549" height="95.481" fill="none" stroke="none" visibility="hidden"/></g></svg></g></svg>